<!-- Generated by IcoMoon.io -->
<svg version="1.1" xmlns="http://www.w3.org/2000/svg" width="24" height="24" viewBox="0 0 24 24">
<path d="M12.984 8.016q0-1.125-0.539-2.039t-1.43-1.453-2.016-0.539-2.016 0.539-1.43 1.453-0.539 2.039q0 1.078 0.539 1.992t1.43 1.453 2.016 0.539 2.016-0.539 1.43-1.453 0.539-1.992zM11.016 8.016q0 0.797-0.586 1.383t-1.43 0.586-1.43-0.586-0.586-1.383q0-0.844 0.586-1.43t1.43-0.586 1.43 0.586 0.586 1.43zM0.984 18v2.016h16.031v-2.016q0-0.797-0.563-1.43t-1.477-1.125-1.992-0.797-2.133-0.469-1.852-0.164-1.852 0.164-2.133 0.469-1.992 0.797-1.477 1.125-0.563 1.43zM3 18q0.094-0.281 0.633-0.609t1.43-0.656 1.898-0.539 2.039-0.211 2.039 0.211 1.875 0.539 1.43 0.656 0.656 0.609h-12zM20.016 15v-3h3v-2.016h-3v-3h-2.016v3h-3v2.016h3v3h2.016z"></path>
</svg>
